<?xml version="1.0" encoding="UTF-8"?>
<svg version="1.1" xmlns="http://www.w3.org/2000/svg" width="512" height="512">
<path d="M0 0 C0.65752258 0.00054382 1.31504517 0.00108765 1.99249268 0.00164795 C13.23724697 0.04424817 23.73740297 1.05136839 34.5 4.375 C35.19722168 4.58930664 35.89444336 4.80361328 36.61279297 5.02441406 C65.24201643 14.16182476 89.69251879 34.78780181 103.78125 61.29125977 C110.02758174 73.53401083 115.71666699 87.48861536 115.5 101.375 C116.19738281 101.44976562 116.89476562 101.52453125 117.61328125 101.6015625 C152.51512256 105.94831197 203.26407448 115.37943423 226.38671875 144.7734375 C231.75666381 152.60081505 233.41703785 158.85924357 232.5 168.375 C230.00219742 179.75760369 221.32857974 187.7393537 211.97802734 194.04882812 C169.93789517 220.92985992 114.44521121 226.22874125 65.828125 230.61328125 C65.13654297 230.67653595 64.44496094 230.73979065 63.73242188 230.80496216 C49.88544407 232.00691259 36.07747223 232.54065739 22.18359375 232.578125 C20.56747919 232.58510467 18.9513649 232.59214563 17.33525085 232.59924316 C12.20266373 232.61850851 7.07011935 232.62341831 1.9375 232.625 C1.06422813 232.62558914 0.19095627 232.62617828 -0.70877838 232.62678528 C-26.06024231 232.63886368 -51.26712203 232.46148793 -76.48742676 229.59960938 C-78.52795502 229.37188013 -80.56959239 229.16028829 -82.61230469 228.953125 C-195.64641226 217.4089695 -195.64641226 217.4089695 -226.02734375 180.4921875 C-231.1348269 173.14933375 -232.94581515 165.21800893 -231.5 156.375 C-227.07914679 143.07907545 -217.34652477 135.04994543 -205.5 128.375 C-204.44296875 127.76140625 -203.3859375 127.1478125 -202.296875 126.515625 C-176.14170975 112.0337382 -143.86390585 105.19432976 -114.5 101.375 C-114.5319043 99.78836548 -114.5319043 99.78836548 -114.56445312 98.16967773 C-114.48128338 93.27305884 -113.35683103 89.11450082 -112 84.4375 C-111.73300293 83.51525635 -111.46600586 82.5930127 -111.19091797 81.64282227 C-105.49827627 62.84995227 -95.02410672 47.41926467 -81.5 33.375 C-80.85546875 32.65570313 -80.2109375 31.93640625 -79.546875 31.1953125 C-59.76092632 9.7748724 -28.34846375 -0.03974928 0 0 Z " fill="#020100" transform="translate(255.5,139.625)"/>
<path d="M0 0 C0.21914062 0.76183594 0.43828125 1.52367187 0.6640625 2.30859375 C4.9912506 16.39834038 12.35504918 25.2006408 25.11328125 32.52734375 C64.53475528 52.63816338 115.13356173 54.05040103 158 47 C159.05832031 46.82839355 160.11664063 46.65678711 161.20703125 46.47998047 C175.13000767 44.14767349 188.17074136 40.95505446 201 35 C201.61294922 34.71898437 202.22589844 34.43796875 202.85742188 34.1484375 C215.87669022 28.04520984 224.65054313 20.50457293 230 7 C230.81165374 4.65960039 231.45037923 2.4183314 232 0 C262.48431714 3.21470981 307.68702294 11.5400423 328.75 36.03515625 C331.09163166 39.33762047 331.9684988 41.4119776 332.1875 45.5 C328.45444085 56.50270066 319.15593193 62.05342967 309.19628906 66.98095703 C272.86737994 84.33071294 230.92144645 91.74921162 191 95 C190.2212854 95.06467468 189.4425708 95.12934937 188.64025879 95.19598389 C123.40623716 100.57193297 56.5042187 100.3477892 -8 88 C-8.97114746 87.81856445 -9.94229492 87.63712891 -10.94287109 87.45019531 C-78.45289694 74.70914447 -78.45289694 74.70914447 -97.5390625 52.18359375 C-99.51505741 49.17927495 -100 47.02255382 -100 43.4375 C-97.27407843 34.06714461 -89.6968825 28.55925195 -81.45703125 23.95703125 C-58.16859473 11.59119946 -26.53666001 0 0 0 Z " fill="#FAB115" transform="translate(140,258)"/>
<path d="M0 0 C0.85722656 0.63808594 1.71445312 1.27617187 2.59765625 1.93359375 C15.62295802 12.01199467 25.20033499 24.01230406 32.6875 38.625 C33.03876953 39.29982422 33.39003906 39.97464844 33.75195312 40.66992188 C34.97471086 43.1633392 35.9750897 45.34758748 36.08203125 48.1484375 C30.50479356 57.69215832 15.28232253 62.32738746 5.26171875 65.16796875 C-3.4812338 67.39820694 -12.29760156 69.10439623 -21.1875 70.625 C-22.2552063 70.80977905 -22.2552063 70.80977905 -23.34448242 70.99829102 C-34.33490241 72.81600021 -45.24663426 73.20815027 -56.375 73.1875 C-57.43395981 73.18559662 -57.43395981 73.18559662 -58.51431274 73.18365479 C-88.93313939 73.07987286 -125.62090614 70.91826946 -150.33203125 51.1328125 C-152 49 -152 49 -151.9609375 46.71484375 C-143.1752191 21.89340355 -124.25148065 2.80587695 -101 -9 C-68.88363162 -23.93014793 -28.69734663 -21.44054633 0 0 Z " fill="#FAB015" transform="translate(314,174)"/>
<path d="M0 0 C1.2065625 0.72703125 1.2065625 0.72703125 2.4375 1.46875 C20.01949477 11.65481815 39.41552297 16.8650571 59.43066406 19.64160156 C61.69695398 19.9577279 63.95252086 20.312545 66.2109375 20.6796875 C109.1495934 27.09443087 160.26234582 22.29028407 198 0 C199.87615736 8.09950859 200.8464618 17.95756482 196.29296875 25.27734375 C195.86628906 25.84582031 195.43960938 26.41429687 195 27 C194.58363281 27.57878906 194.16726563 28.15757812 193.73828125 28.75390625 C180.67859127 44.07590473 153.88091607 48.382627 135 51 C134.31276855 51.10296387 133.62553711 51.20592773 132.91748047 51.31201172 C122.03027232 52.9076595 111.1768392 53.18306683 100.1875 53.1875 C98.90085449 53.18838623 97.61420898 53.18927246 96.28857422 53.19018555 C84.66654184 53.12238167 73.10504798 52.5736897 61.625 50.6875 C60.82610352 50.55778809 60.02720703 50.42807617 59.20410156 50.29443359 C39.77147958 47.01455233 14.67550917 42.41886129 2 26 C-2.82445136 18.06299937 -1.36492384 8.80596027 0 0 Z " fill="#B51F24" transform="translate(157,240)"/>
</svg>
